<?xml version="1.0" encoding="UTF-8"?><svg id="Layer_2" xmlns="http://www.w3.org/2000/svg" viewBox="0 0 656.15 76.53"><defs><style>.cls-1{fill:#f5f5f5;}.cls-2{fill:#131313;}</style></defs><g id="Layer_1-2"><path class="cls-1" d="M191.27,0v76.53h464.88V0H191.27ZM218.6,14.33h-8.59v47.86h8.59v7.27h-16.4V7.06h16.4v7.27ZM556.67,69.46h-16.4v-7.27h8.59V14.33h-8.59v-7.27h16.4v62.4Z"/><path class="cls-1" d="M183.65,59.84h-10.08v-10.44h10.08v10.44Z"/><path class="cls-2" d="M224.61,34.93h-4.17v-8.16h4.17v-1.02c0-1.99.29-3.75.86-5.27.57-1.52,1.42-2.8,2.55-3.84s2.51-1.82,4.17-2.35c1.65-.53,3.56-.79,5.71-.79.95,0,1.95.05,3,.15,1.05.1,2.11.25,3.18.44v7.77c-.75-.13-1.48-.23-2.19-.29-.71-.06-1.37-.1-1.97-.1-1.84,0-3.19.36-4.06,1.08-.87.72-1.3,1.84-1.3,3.36v.87h9.51v8.16h-9.03v24.92h-10.44v-24.92Z"/><path class="cls-2" d="M245,43.3c0-1.77.19-3.43.57-4.97s.92-2.96,1.64-4.26c.71-1.29,1.57-2.45,2.59-3.47s2.15-1.87,3.42-2.57c1.27-.7,2.64-1.23,4.13-1.6,1.49-.37,3.06-.56,4.72-.56s3.25.19,4.74.56c1.49.37,2.86.91,4.12,1.6,1.26.7,2.4,1.56,3.41,2.57,1.01,1.02,1.88,2.17,2.59,3.47.71,1.29,1.25,2.71,1.63,4.26s.57,3.2.57,4.97-.19,3.43-.57,4.98c-.38,1.55-.92,2.97-1.63,4.26-.71,1.29-1.57,2.44-2.59,3.46s-2.15,1.88-3.41,2.58c-1.26.71-2.64,1.24-4.12,1.61-1.49.37-3.07.55-4.74.55s-3.23-.19-4.72-.55c-1.49-.37-2.87-.91-4.13-1.61s-2.41-1.56-3.42-2.58c-1.02-1.01-1.88-2.17-2.59-3.46-.71-1.29-1.26-2.71-1.64-4.26-.38-1.55-.57-3.21-.57-4.98ZM255.53,43.3c0,1.37.15,2.58.44,3.64.29,1.06.71,1.94,1.27,2.66s1.25,1.25,2.06,1.62c.81.36,1.74.55,2.79.55s1.98-.18,2.79-.55c.81-.37,1.49-.91,2.05-1.62.56-.71.98-1.6,1.26-2.66.28-1.05.43-2.27.43-3.64s-.14-2.58-.43-3.64c-.29-1.05-.71-1.94-1.26-2.65-.55-.71-1.24-1.25-2.05-1.61s-1.74-.55-2.79-.55-1.98.18-2.79.55-1.5.9-2.06,1.61c-.56.71-.98,1.59-1.27,2.65-.29,1.06-.44,2.27-.44,3.64Z"/><path class="cls-2" d="M304.04,26.77h10.44v33.08h-10.44v-10.12c-.65,3.64-1.92,6.39-3.82,8.24-1.9,1.85-4.39,2.78-7.47,2.78-3.46,0-6.07-1.21-7.82-3.62s-2.63-6.01-2.63-10.78v-19.58h10.44v17.33c0,2.57.44,4.49,1.33,5.76.89,1.27,2.24,1.91,4.06,1.91,1.92,0,3.38-.67,4.4-2,1.01-1.33,1.51-3.3,1.51-5.9v-17.08Z"/><path class="cls-2" d="M328.88,59.84h-10.44V26.77h10.44v10.12c.65-3.64,1.92-6.39,3.82-8.24s4.39-2.78,7.47-2.78c3.47,0,6.08,1.21,7.83,3.62,1.75,2.42,2.62,6.01,2.62,10.78v19.58h-10.44v-17.33c0-2.57-.45-4.49-1.33-5.76-.89-1.27-2.25-1.91-4.07-1.91-1.92,0-3.38.67-4.4,2-1.01,1.33-1.51,3.3-1.51,5.9v17.08Z"/><path class="cls-2" d="M387.83,15.44v44.4h-10.44v-9.96c-.34,1.76-.82,3.31-1.44,4.67s-1.38,2.48-2.27,3.4c-.9.92-1.92,1.62-3.06,2.08-1.15.47-2.41.71-3.8.71-1.28,0-2.49-.19-3.64-.58-1.15-.38-2.2-.94-3.17-1.66-.97-.72-1.83-1.59-2.6-2.62-.77-1.02-1.42-2.18-1.96-3.48-.54-1.29-.95-2.71-1.24-4.24-.28-1.53-.43-3.15-.43-4.88s.14-3.35.43-4.88c.29-1.53.7-2.94,1.24-4.23s1.19-2.45,1.96-3.48,1.64-1.9,2.6-2.62c.96-.71,2.02-1.26,3.17-1.65,1.15-.38,2.36-.58,3.64-.58,1.39,0,2.66.24,3.8.71,1.15.47,2.17,1.16,3.06,2.08s1.65,2.05,2.27,3.4,1.1,2.9,1.44,4.67V15.44h10.44ZM377.39,43.3c0-1.38-.15-2.6-.44-3.66-.29-1.06-.71-1.95-1.27-2.66-.56-.71-1.24-1.26-2.06-1.63-.82-.37-1.76-.55-2.82-.55-2.14,0-3.76.71-4.85,2.14-1.09,1.43-1.64,3.55-1.64,6.37s.54,4.97,1.63,6.39c1.08,1.42,2.71,2.13,4.87,2.13,1.06,0,2-.19,2.82-.56.82-.37,1.51-.92,2.06-1.63.55-.72.98-1.61,1.27-2.67s.44-2.28.44-3.66Z"/><path class="cls-2" d="M392.98,39.19c0-2.06.38-3.91,1.13-5.55.75-1.64,1.84-3.04,3.25-4.19,1.41-1.16,3.12-2.04,5.14-2.66,2.02-.61,4.28-.92,6.8-.92s4.86.32,6.87.97c2.01.65,3.71,1.58,5.1,2.8,1.39,1.23,2.45,2.73,3.18,4.51s1.09,3.8,1.09,6.07v19.62h-10.44v-8.25c-.35,1.41-.89,2.68-1.63,3.81s-1.63,2.09-2.69,2.88c-1.06.79-2.25,1.4-3.58,1.82-1.33.42-2.78.64-4.33.64-1.63,0-3.11-.23-4.45-.7-1.33-.47-2.48-1.12-3.44-1.97-.96-.84-1.69-1.86-2.21-3.04s-.78-2.5-.78-3.95c0-1.59.32-3.01.95-4.27.63-1.25,1.56-2.31,2.77-3.17,1.22-.86,2.7-1.52,4.46-1.97s3.75-.68,5.98-.68h8.94v-.77c0-1.03-.13-1.95-.4-2.75-.27-.8-.65-1.48-1.17-2.04-.52-.55-1.15-.98-1.9-1.27-.75-.29-1.62-.44-2.6-.44s-1.82.13-2.53.38c-.71.25-1.3.61-1.76,1.07s-.81,1.04-1.04,1.71c-.22.67-.34,1.44-.34,2.3h-10.4ZM407.57,46.63c-1.68,0-2.95.28-3.8.83-.85.55-1.28,1.38-1.28,2.47s.42,1.94,1.27,2.54c.85.6,2.06.9,3.61.9,1.1,0,2.12-.15,3.06-.44s1.76-.7,2.45-1.21c.69-.51,1.23-1.12,1.63-1.81.4-.7.59-1.46.59-2.27v-1h-7.53Z"/><path class="cls-2" d="M451.16,59.59c-1.47.38-2.84.67-4.12.86-1.28.2-2.47.29-3.59.29-3.8,0-6.67-1.1-8.61-3.31-1.94-2.21-2.91-5.5-2.91-9.87v-12.63h-3.96v-8.16h3.96v-7.62h10.44v7.62h8.79v8.16h-8.79v12.65c0,1.75.32,3.02.95,3.83.63.8,1.66,1.2,3.07,1.2.58,0,1.25-.06,2.02-.19s1.69-.32,2.75-.58v7.77Z"/><path class="cls-2" d="M465.1,23.48h-10.56v-8.04h10.56v8.04ZM465.04,59.84h-10.44V26.77h10.44v33.08Z"/><path class="cls-2" d="M468.34,43.3c0-1.77.19-3.43.57-4.97s.92-2.96,1.64-4.26c.71-1.29,1.57-2.45,2.59-3.47s2.15-1.87,3.42-2.57c1.27-.7,2.64-1.23,4.13-1.6,1.49-.37,3.06-.56,4.72-.56s3.25.19,4.74.56c1.49.37,2.86.91,4.12,1.6,1.26.7,2.4,1.56,3.41,2.57,1.01,1.02,1.88,2.17,2.59,3.47.71,1.29,1.25,2.71,1.63,4.26s.57,3.2.57,4.97-.19,3.43-.57,4.98c-.38,1.55-.92,2.97-1.63,4.26-.71,1.29-1.57,2.44-2.59,3.46s-2.15,1.88-3.41,2.58c-1.26.71-2.64,1.24-4.12,1.61-1.49.37-3.07.55-4.74.55s-3.23-.19-4.72-.55c-1.49-.37-2.87-.91-4.13-1.61s-2.41-1.56-3.42-2.58c-1.02-1.01-1.88-2.17-2.59-3.46-.71-1.29-1.26-2.71-1.64-4.26-.38-1.55-.57-3.21-.57-4.98ZM478.87,43.3c0,1.37.15,2.58.44,3.64.29,1.06.71,1.94,1.27,2.66s1.25,1.25,2.06,1.62c.81.36,1.74.55,2.79.55s1.98-.18,2.79-.55c.81-.37,1.49-.91,2.05-1.62.56-.71.98-1.6,1.26-2.66.28-1.05.43-2.27.43-3.64s-.14-2.58-.43-3.64c-.29-1.05-.71-1.94-1.26-2.65-.55-.71-1.24-1.25-2.05-1.61s-1.74-.55-2.79-.55-1.98.18-2.79.55-1.5.9-2.06,1.61c-.56.71-.98,1.59-1.27,2.65-.29,1.06-.44,2.27-.44,3.64Z"/><path class="cls-2" d="M516.22,59.84h-10.44V26.77h10.44v10.12c.65-3.64,1.92-6.39,3.82-8.24s4.39-2.78,7.47-2.78c3.47,0,6.08,1.21,7.83,3.62,1.75,2.42,2.62,6.01,2.62,10.78v19.58h-10.44v-17.33c0-2.57-.45-4.49-1.33-5.76-.89-1.27-2.25-1.91-4.07-1.91-1.92,0-3.38.67-4.4,2-1.01,1.33-1.51,3.3-1.51,5.9v17.08Z"/><polygon class="cls-2" points="218.6 7.06 218.6 14.33 210.01 14.33 210.01 62.19 218.6 62.19 218.6 69.46 202.2 69.46 202.2 7.06 218.6 7.06"/><polygon class="cls-2" points="556.67 7.06 556.67 69.46 540.27 69.46 540.27 62.19 548.86 62.19 548.86 14.33 540.27 14.33 540.27 7.06 556.67 7.06"/><path class="cls-1" d="M31.25,5.7h22.18v34.98c0,.64-.08,1.68-.19,2.32-1.55,9.24-8.29,15.87-17.66,15.88-7.02,0-22.05,0-22.05,0,0,0,0-15.35,0-21.98,0-2.93,2.03-5.09,4.85-5.18,2.78-.08,4.39-.16,4.39-.16v5.88l9.53-9.81h-14.02c-5.45,0-8.98,4.75-8.9,9.53.13,8.23.04,17.53.04,25.77h20.29l-7.62,7.93H0s.02-22.67.01-33.95c0-.8.05-1.61.14-2.4,1.04-9.42,9.07-16.67,18.55-16.72,6.74-.04,21.03-.02,21.03-.02,0,7.08,0,15.01,0,22.1,0,2.92-2.12,5.06-5.02,5.08-3.24.02-4.43,0-4.43,0v-5.32l-9.16,9.42h13.65c5.31,0,9.09-4.07,9.09-9.41V13.56h-20.12l7.5-7.87Z"/><path class="cls-1" d="M168.72,23.87c-1.17-1.92-2.77-3.39-4.8-4.4-2.03-1.02-4.3-1.53-6.82-1.53h-16.64v39.83h8.85v-14.5h7.79c2.52,0,4.79-.51,6.82-1.52,2.03-1.06,3.63-2.52,4.8-4.4,1.2-1.92,1.8-4.18,1.8-6.77s-.6-4.83-1.8-6.71ZM160.93,33.74c-.52.86-1.24,1.52-2.14,1.97s-1.9.68-2.99.68h-6.49v-11.57h6.49c1.09,0,2.09.23,2.99.68.9.45,1.62,1.11,2.14,1.98.53.86.79,1.89.79,3.1s-.26,2.29-.79,3.16Z"/><path class="cls-1" d="M134.79,50.21v7.56h-28.66v-4.97l15.29-15.79c.94-.94,1.69-1.81,2.26-2.6.56-.79.97-1.52,1.24-2.2.26-.71.39-1.43.39-2.14,0-1.54-.51-2.74-1.52-3.61-.98-.9-2.28-1.35-3.89-1.35s-3.01.43-4.29,1.29c-1.24.83-2.45,2.2-3.61,4.12l-5.92-5.13c1.58-2.67,3.59-4.68,6.03-6.04,2.45-1.35,5.25-2.03,8.41-2.03,2.74,0,5.11.51,7.11,1.52,2.03,1.02,3.59,2.47,4.68,4.35,1.13,1.88,1.69,4.08,1.69,6.6,0,1.58-.21,3.04-.62,4.4-.41,1.31-1.09,2.63-2.03,3.95-.9,1.28-2.13,2.69-3.67,4.23l-7.88,7.84h14.99Z"/><path class="cls-1" d="M101.45,23.87c-1.16-1.92-2.76-3.39-4.79-4.4-2.03-1.02-4.31-1.53-6.83-1.53h-16.64v39.83h8.86v-14.5h7.78c2.52,0,4.8-.51,6.83-1.52,2.03-1.06,3.63-2.52,4.79-4.4,1.21-1.92,1.81-4.18,1.81-6.77s-.6-4.83-1.81-6.71ZM93.67,33.74c-.53.86-1.24,1.52-2.14,1.97-.91.45-1.9.68-2.99.68h-6.49v-11.57h6.49c1.09,0,2.08.23,2.99.68.9.45,1.61,1.11,2.14,1.98.53.86.79,1.89.79,3.1s-.26,2.29-.79,3.16Z"/></g></svg>